HIERARCHY
ROOT Hips
{
	OFFSET 0.00000 0.00000 0.00000
	CHANNELS 6 Xposition Yposition Zposition Yrotation Zrotation Xrotation 
	JOINT Lumbar
	{
		OFFSET 0 0 0
		CHANNELS 3 Zrotation Xrotation Yrotation
		JOINT Neck
		{
			OFFSET 0.00 0.2701 0.00
			CHANNELS 3 Zrotation Xrotation Yrotation
			End Site
			{
				OFFSET 0.00 0.1379 0.00
			}
		}
		JOINT RightShoulder
		{
			OFFSET 0.0119 0.2289 0.1181
			CHANNELS 3 Zrotation Xrotation Yrotation
			JOINT RightElbow
			{
				OFFSET 0.00 -0.1475 0.00
				CHANNELS 2 Zrotation Yrotation
				JOINT RightWrist
				{
					OFFSET 0.00 -0.1605 0.00
					CHANNELS 2 Zrotation Xrotation
					End Site
					{
						OFFSET 0.0040 -0.1068 0.0006
					}
				}
			}
		}
		JOINT LeftShoulder
		{
			OFFSET 0.0119 0.2289 -0.1181
			CHANNELS 3 Zrotation Xrotation Yrotation
			JOINT LeftElbow
			{
				OFFSET 0.00 -0.1475 0.00
				CHANNELS 2 Zrotation Yrotation
				JOINT LeftWrist
				{
					OFFSET 0.00 -0.1605 0.00
					CHANNELS 2 Zrotation Xrotation
					End Site
					{
						OFFSET 0.0040 -0.1068 -0.0006
					}
				}
			}
		}
	}
	JOINT RightHip
	{
		OFFSET 0.0316 -0.0424 0.0458
		CHANNELS 3 Zrotation Xrotation Yrotation
		JOINT RightKnee
		{
			OFFSET 0.00 -0.2438 0.00
			CHANNELS 1 Zrotation
			JOINT RightAnkle
			{
				OFFSET 0.00 -0.2449 0.00
				CHANNELS 3 Zrotation Xrotation Yrotation
				End Site
				{
					OFFSET 0.1237 -0.0542 0.0051
				}
			}
		}
	}
	JOINT LeftHip
	{
		OFFSET 0.0316 -0.0424 -0.0458
		CHANNELS 3 Zrotation Xrotation Yrotation
		JOINT LeftKnee
		{
			OFFSET 0.00 -0.2438 0.00
			CHANNELS 1 Zrotation
			JOINT LeftAnkle
			{
				OFFSET 0.00 -0.2449 0.00
				CHANNELS 3 Zrotation Xrotation Yrotation
				End Site
				{
					OFFSET 0.1237 -0.0542 -0.0051
				}
			}
		}
	}
}
MOTION
Frames: 29
Frame Time: 0.02
-0 0.57926 0 177.21163 0 3.01598 11.36123 0.55891 0.02324 -37.5248 -4.59741 -2.21149 29.49959 -4.48666 -9.52903 9.23343 79.07095 0.42488 -0.10268 28.22738 13.07257 2.48854 8.0645 -76.48605 -4.8893 -3.08211 2.07884 1.26952 14.68012 -20.78289 11.20378 -8.96531 -12.73362 0.91562 -3.7442 -5.13356 -16.09134 8.1551 6.75969 11.77453
0.00073 0.57925 -0.00013 177.2992 0 3.05395 11.29516 0.4927 -0.22859 -37.19954 -4.27406 -1.71998 29.21435 -5.057 -8.49679 9.09595 79.34148 0.45638 0.15657 28.18105 12.60041 2.40067 8.08988 -76.31986 -5.0042 -2.66347 2.14892 1.24857 14.6312 -20.81043 11.21492 -8.97082 -12.74868 0.95205 -3.75711 -5.16949 -15.98884 8.10466 6.67832 11.71747
0.00147 0.57924 -0.00026 177.38716 0 3.09173 11.22883 0.42666 -0.47795 -36.87519 -3.95057 -1.23128 28.92957 -5.62551 -7.47094 8.95967 79.61082 0.48782 0.41446 28.13441 12.12875 2.31616 8.11462 -76.15464 -5.11779 -2.24806 2.21909 1.22774 14.58175 -20.83835 11.22602 -8.97639 -12.76381 0.98909 -3.77007 -5.20629 -15.8877 8.0544 6.59776 11.66101
0.0022 0.57924 -0.00039 177.47715 0 3.12887 11.16045 0.36071 -0.71863 -36.5486 -3.62195 -0.74967 28.64097 -6.19292 -6.46042 8.82664 79.87655 0.51957 0.66984 28.08425 11.6539 2.24792 8.13702 -75.99171 -5.22728 -1.84123 2.29 1.20739 14.5297 -20.86728 11.23696 -8.98208 -12.77916 1.02892 -3.78311 -5.24662 -15.79113 8.00441 6.51984 11.60658
0.00292 0.57923 -0.00053 177.55594 0 3.16908 11.10248 0.29436 -1.00376 -36.23059 -3.31878 -0.23126 28.36911 -6.76692 -5.36851 8.67614 80.15961 0.54997 0.93901 28.05053 11.19528 2.09792 8.17177 -75.81667 -5.35848 -1.38858 2.35658 1.18471 14.49138 -20.88996 11.24861 -8.9869 -12.7931 1.05394 -3.79543 -5.26793 -15.67051 7.95307 6.42818 11.54165
0.00368 0.57922 -0.00065 177.65864 0 3.20296 11.02285 0.22886 -1.19566 -35.89698 -2.96325 0.20931 28.06452 -7.32589 -4.44993 8.56293 80.40698 0.58297 1.17838 27.98358 10.70325 2.11797 8.18043 -75.66743 -5.44364 -1.03354 2.43254 1.16687 14.42412 -20.92644 11.25885 -8.9937 -12.81019 1.11029 -3.80945 -5.32965 -15.60076 7.90456 6.36549 11.49882
0.00455 0.5792 -0.00068 177.83022 0 3.21808 10.87639 0.16457 -1.1168 -35.49118 -2.4378 0.43517 27.63799 -7.86208 -4.00092 8.55179 80.54818 0.62628 1.34216 27.8074 10.09762 2.65234 8.11378 -75.58765 -5.39926 -0.94624 2.53517 1.1633 14.27155 -20.99826 11.2645 -9.00519 -12.83499 1.25784 -3.82728 -5.50712 -15.67587 7.8635 6.38576 11.51953
0.00545 0.57918 -0.00069 178.0256 0 3.22705 10.70924 0.10125 -0.94606 -35.07492 -1.86344 0.58271 27.18408 -8.38042 -3.72786 8.57845 80.65462 0.6717 1.47478 27.60107 9.46142 3.35152 8.02123 -75.53406 -5.30871 -0.95779 2.64721 1.16448 14.09053 -21.08453 11.26887 -9.0188 -12.86316 1.43632 -3.847 -5.72486 -15.80167 7.82534 6.43479 11.56214
0.00633 0.57916 -0.00071 178.20849 0 3.23973 10.55582 0.03814 -0.82608 -34.68141 -1.32743 0.76613 26.76225 -8.89519 -3.37995 8.58839 80.78247 0.71412 1.61753 27.4192 8.85239 3.94597 7.94264 -75.46964 -5.24088 -0.92508 2.75464 1.16287 13.92592 -21.16616 11.27429 -9.032 -12.89048 1.5978 -3.86651 -5.92169 -15.90149 7.78602 6.46874 11.5931
0.00726 0.57914 -0.00073 178.3985 0 3.24861 10.38385 -0.02766 -0.66861 -34.21042 -0.72398 0.94808 26.25623 -9.45846 -3.01141 8.59642 80.88782 0.76501 1.77735 27.19041 8.18775 4.66322 7.85515 -75.40107 -5.16603 -0.88928 2.86364 1.16384 13.74688 -21.23991 11.27776 -9.04298 -12.91499 1.77167 -3.88338 -6.1294 -16.01354 7.74594 6.51106 11.63112
0.00808 0.57913 -0.00075 178.57925 0 3.26384 10.24595 -0.08765 -0.56673 -33.90031 -0.24871 1.11477 25.9208 -9.91738 -2.72655 8.61738 81.03025 0.79892 1.89411 27.05412 7.63126 5.16765 7.77962 -75.34694 -5.09445 -0.8838 2.97141 1.16069 13.59083 -21.33316 11.28496 -9.05895 -12.94603 1.92711 -3.90606 -6.32415 -16.1124 7.70826 6.54292 11.65979
0.0086 0.5791 -0.00076 178.72953 0 3.29922 10.20444 -0.13173 -0.64703 -34.02057 -0.14502 1.25618 26.04852 -10.08489 -2.63874 8.66508 81.29676 0.78433 1.90064 27.16466 7.38418 5.01082 7.7471 -75.32978 -5.04674 -0.93401 3.0752 1.14394 13.50777 -21.48016 11.30305 -9.08927 -12.9953 2.02405 -3.94567 -6.47252 -16.16073 7.67534 6.53779 11.65588
0.009 0.57908 -0.00078 178.86962 0 3.34102 10.19855 -0.17005 -0.78543 -34.30662 -0.17107 1.38539 26.35195 -10.14937 -2.62748 8.72446 81.59941 0.75283 1.86482 27.37271 7.24642 4.63975 7.72696 -75.32563 -5.00337 -1.01187 3.17715 1.1231 13.44833 -21.64587 11.32495 -9.12438 -13.05087 2.10143 -3.99087 -6.60675 -16.19454 7.64499 6.52138 11.6421
0.00945 0.57906 -0.0008 179.01359 0 3.37914 10.17798 -0.21106 -0.89299 -34.52691 -0.13384 1.52168 26.58404 -10.26614 -2.57506 8.77828 81.87675 0.7298 1.84757 27.54604 7.05636 4.38935 7.69859 -75.31315 -4.95559 -1.07982 3.27879 1.10481 13.37642 -21.80048 11.34485 -9.15648 -13.1028 2.18772 -4.03261 -6.7478 -16.23587 7.61413 6.51083 11.63376
0.00992 0.57903 -0.0008 179.16104 0 3.42018 10.14981 -0.2516 -1.01549 -34.70443 -0.11266 1.64869 26.77775 -10.35951 -2.55515 8.83437 82.19001 0.70343 1.83168 27.67613 6.87605 4.04876 7.67974 -75.31157 -4.91607 -1.14074 3.38548 1.08372 13.31094 -21.96565 11.36558 -9.19193 -13.15793 2.2748 -4.07816 -6.88804 -16.27432 7.58036 6.49808 11.62209
0.01033 0.57901 -0.00083 179.29917 0 3.45685 10.14686 -0.29193 -1.1226 -35.01297 -0.0901 1.79321 27.09536 -10.477 -2.48408 8.88814 82.43795 0.68009 1.80384 27.92194 6.70212 3.83994 7.64503 -75.2903 -4.8615 -1.22065 3.48123 1.06747 13.23795 -22.11422 11.38585 -9.22183 -13.20811 2.35545 -4.11724 -7.02679 -16.31563 7.55352 6.48701 11.61481
0.01064 0.57902 -0.00093 179.40808 0 3.47896 10.19962 -0.33142 -1.16697 -35.62301 -0.02733 1.98856 27.69705 -10.68916 -2.24719 8.93128 82.4927 0.6682 1.74864 28.44652 6.5167 4.07325 7.55773 -75.20949 -4.75996 -1.35383 3.5455 1.06509 13.13907 -22.2017 11.40079 -9.23235 -13.24068 2.42019 -4.13548 -7.15845 -16.35919 7.54265 6.48161 11.62071
0.01088 0.57903 -0.00105 179.50889 0 3.49665 10.27778 -0.37115 -1.19528 -36.36348 0.03995 2.20218 28.42094 -10.92834 -1.9568 8.9717 82.48133 0.66012 1.68378 29.08807 6.33481 4.44113 7.45526 -75.10897 -4.64414 -1.50329 3.59887 1.06779 13.03166 -22.27327 11.41565 -9.2376 -13.2684 2.47927 -4.14721 -7.28991 -16.40716 7.53906 6.47836 11.63126
0.01114 0.57904 -0.00116 179.61724 0 3.51703 10.34765 -0.41195 -1.2355 -37.05651 0.10222 2.40848 29.09813 -11.15379 -1.69334 9.0141 82.50308 0.65102 1.62675 29.68655 6.15265 4.72936 7.36358 -75.01824 -4.53797 -1.63972 3.65859 1.06849 12.92813 -22.35966 11.43267 -9.24722 -13.30004 2.54299 -4.16313 -7.42578 -16.45949 7.5339 6.4752 11.64077
0.01146 0.57906 -0.00125 179.70916 0 3.5348 10.40439 -0.44783 -1.25877 -37.70306 0.17356 2.61121 29.7416 -11.38322 -1.41995 9.05393 82.51332 0.63841 1.55423 30.24342 5.9675 5.08744 7.25572 -74.92316 -4.41868 -1.8007 3.71326 1.06779 12.82617 -22.41663 11.44112 -9.24888 -13.32503 2.59827 -4.17451 -7.54382 -16.48632 7.5218 6.46752 11.64641
0.01164 0.57905 -0.00139 179.83326 0 3.5568 10.49484 -0.49375 -1.31212 -38.47814 0.22743 2.82454 30.48518 -11.6103 -1.15562 9.09812 82.53111 0.63411 1.51158 30.91648 5.78946 5.33584 7.17797 -74.83394 -4.32317 -1.91435 3.77474 1.07119 12.71765 -22.52837 11.46701 -9.26551 -13.36218 2.66882 -4.19311 -7.69805 -16.56516 7.52546 6.46945 11.66009
0.01141 0.57894 -0.00165 180.05097 0 3.59228 10.66395 -0.57022 -1.45751 -39.54524 0.24442 3.07351 31.44255 -11.83975 -0.91086 9.1565 82.58802 0.65314 1.55946 31.85077 5.61799 5.23883 7.18599 -74.7514 -4.2981 -1.89031 3.86777 1.08533 12.60075 -22.81651 11.544 -9.32733 -13.43819 2.79377 -4.23844 -7.96183 -16.80638 7.57399 6.50115 11.70505
0.01104 0.5788 -0.00196 180.30131 0 3.63204 10.86662 -0.65631 -1.63215 -40.73831 0.2423 3.33002 32.498 -12.06308 -0.68032 9.21907 82.65427 0.68024 1.6368 32.89974 5.45585 5.02889 7.22524 -74.67802 -4.29733 -1.81834 3.96632 1.10333 12.47574 -23.15632 11.6379 -9.40386 -13.52585 2.93256 -4.29022 -8.26047 -17.09608 7.63739 6.54161 11.7558
0.01072 0.57867 -0.00226 180.5344 0 3.66928 11.06024 -0.73604 -1.79024 -41.89807 0.24108 3.5767 33.53382 -12.28016 -0.45476 9.27857 82.71469 0.70284 1.69727 33.92052 5.29622 4.87904 7.25051 -74.6098 -4.2844 -1.77031 4.05551 1.11915 12.34964 -23.45832 11.72223 -9.472 -13.60546 3.0577 -4.33565 -8.53677 -17.35074 7.69206 6.57584 11.79759
0.01043 0.57853 -0.00252 180.77568 0 3.70865 11.23208 -0.82396 -1.963 -42.97719 0.27165 3.85319 34.48384 -12.53813 -0.17823 9.34264 82.77947 0.72903 1.77245 34.85886 5.10603 4.69991 7.27327 -74.50168 -4.27518 -1.71436 4.17253 1.13692 12.24447 -23.81994 11.81486 -9.54732 -13.69648 3.21283 -4.39545 -8.83989 -17.66079 7.75587 6.62035 11.86738
0.01007 0.57842 -0.00286 181.00996 0 3.74483 11.4525 -0.89736 -2.11054 -44.2327 0.23288 4.06645 35.61527 -12.70678 -0.013 9.39857 82.8383 0.74968 1.82361 35.9765 4.98446 4.54922 7.31022 -74.47894 -4.26483 -1.66255 4.23393 1.15149 12.09257 -24.07028 11.89381 -9.61102 -13.76666 3.30996 -4.42676 -9.09619 -17.8665 7.80338 6.64464 11.87872
0.00943 0.57841 -0.00335 181.19861 0 3.76948 11.83596 -0.92584 -2.19624 -46.11188 -0.00481 4.1261 37.38441 -12.65112 -0.1411 9.42773 82.87797 0.75261 1.806 37.71527 5.02573 4.53842 7.36713 -74.69116 -4.23983 -1.64041 4.13271 1.15624 11.82428 -23.99674 11.93435 -9.64073 -13.77543 3.2346 -4.37948 -9.20867 -17.77655 7.80822 6.61833 11.73975
0.00874 0.57844 -0.00392 181.38302 0 3.79098 12.25966 -0.93967 -2.25248 -48.13154 -0.30921 4.11747 39.3014 -12.5023 -0.38185 9.44904 82.91169 0.74978 1.76258 39.60083 5.14005 4.55302 7.4393 -74.98877 -4.21396 -1.62283 3.97683 1.15769 11.5068 -23.8101 11.95987 -9.65787 -13.763 3.10257 -4.30307 -9.27439 -17.57971 7.79504 6.57005 11.53949
0.00812 0.57845 -0.00446 181.58086 0 3.81516 12.64101 -0.96202 -2.31291 -49.97739 -0.57533 4.12508 41.04546 -12.38166 -0.57959 9.47625 82.94882 0.74979 1.72766 41.31798 5.23718 4.53346 7.51243 -75.24655 -4.19224 -1.59879 3.85103 1.16053 11.20552 -23.67807 11.98999 -9.67977 -13.76102 3.00173 -4.23893 -9.36494 -17.42813 7.78611 6.52692 11.35897
